<svg width="33" height="32" viewBox="0 0 33 32" fill="none" xmlns="http://www.w3.org/2000/svg">
<path d="M8.53358 23.5335C8.22212 23.5335 7.96078 23.4279 7.74958 23.2167C7.53892 23.0055 7.43358 22.7445 7.43358 22.4335V13.9663C7.43358 13.6554 7.54452 13.3999 7.76638 13.1999C7.98878 12.9999 8.24451 12.8999 8.53358 12.8999C8.86691 12.8999 9.13892 13.0055 9.34958 13.2167C9.56078 13.4279 9.66638 13.689 9.66638 13.9999V22.4663C9.66638 22.7554 9.55545 23.0055 9.33358 23.2167C9.11118 23.4279 8.84451 23.5335 8.53358 23.5335ZM16.6 23.5335C16.2666 23.5335 15.9944 23.4279 15.7832 23.2167C15.572 23.0055 15.4664 22.7445 15.4664 22.4335V13.9663C15.4664 13.6554 15.5776 13.3999 15.8 13.1999C16.0224 12.9999 16.289 12.8999 16.6 12.8999C16.9109 12.8999 17.172 13.0055 17.3832 13.2167C17.5944 13.4279 17.7 13.689 17.7 13.9999V22.4663C17.7 22.7554 17.5888 23.0055 17.3664 23.2167C17.1445 23.4279 16.889 23.5335 16.6 23.5335ZM4.23358 27.9663C3.94452 27.9663 3.69438 27.8607 3.48318 27.6495C3.27198 27.4389 3.16638 27.1778 3.16638 26.8663C3.16638 26.5554 3.27198 26.2943 3.48318 26.0831C3.69438 25.8719 3.95545 25.7663 4.26638 25.7663H28.7664C29.0554 25.7663 29.3056 25.8719 29.5168 26.0831C29.728 26.2943 29.8336 26.5554 29.8336 26.8663C29.8336 27.1778 29.728 27.4389 29.5168 27.6495C29.3056 27.8607 29.0445 27.9663 28.7336 27.9663H4.23358ZM24.4664 23.5335C24.133 23.5335 23.861 23.4279 23.6504 23.2167C23.4392 23.0055 23.3336 22.7445 23.3336 22.4335V13.9663C23.3336 13.6554 23.4445 13.3999 23.6664 13.1999C23.8888 12.9999 24.1554 12.8999 24.4664 12.8999C24.7778 12.8999 25.0392 13.0055 25.2504 13.2167C25.461 13.4279 25.5664 13.689 25.5664 13.9999V22.4663C25.5664 22.7554 25.4554 23.0055 25.2336 23.2167C25.0112 23.4279 24.7554 23.5335 24.4664 23.5335ZM17.5664 1.89994L29.0336 8.16635C29.2778 8.27781 29.4722 8.45008 29.6168 8.68315C29.7613 8.91675 29.8336 9.17781 29.8336 9.46635C29.8336 9.82208 29.7002 10.1111 29.4336 10.3335C29.1669 10.5554 28.8557 10.6663 28.5 10.6663H4.53358C4.17785 10.6663 3.86105 10.5554 3.58318 10.3335C3.30532 10.1111 3.16638 9.82208 3.16638 9.46635C3.16638 9.17781 3.23865 8.92235 3.38318 8.69994C3.52772 8.47755 3.72212 8.29968 3.96638 8.16635L15.4336 1.89994C15.7669 1.72234 16.1224 1.63354 16.5 1.63354C16.8776 1.63354 17.233 1.72234 17.5664 1.89994ZM8.13358 8.43355H24.8664H8.13358ZM8.13358 8.43355H24.8664L16.5 3.83354L8.13358 8.43355Z" fill="#038BFF"/>
</svg>
