<svg width="33" height="32" viewBox="0 0 33 32" fill="none" xmlns="http://www.w3.org/2000/svg">
<path d="M8.06642 25.7664H12.7336V17.5664H20.2664V25.7664H24.9336V13.1L16.5 6.76641L8.06642 13.1V25.7664ZM8.06642 28C7.44455 28 6.91682 27.7835 6.48322 27.3504C6.05015 26.9168 5.83362 26.3888 5.83362 25.7664V13.1C5.83362 12.7443 5.91122 12.4109 6.06642 12.1C6.22215 11.7891 6.44455 11.5336 6.73362 11.3336L15.1664 5.00001C15.3664 4.84427 15.5776 4.73307 15.8 4.66641C16.0224 4.59974 16.2558 4.56641 16.5 4.56641C16.7443 4.56641 16.9776 4.59974 17.2 4.66641C17.4224 4.73307 17.6336 4.84427 17.8336 5.00001L26.2664 11.3336C26.5555 11.5336 26.7779 11.7891 26.9336 12.1C27.0888 12.4109 27.1664 12.7443 27.1664 13.1V25.7664C27.1664 26.3888 26.9499 26.9168 26.5168 27.3504C26.0832 27.7835 25.5555 28 24.9336 28H18.0664V19.7664H14.9336V28H8.06642Z" fill="#038BFF"/>
</svg>
