<svg width="33" height="32" viewBox="0 0 33 32" fill="none" xmlns="http://www.w3.org/2000/svg">
<path d="M16.4664 27.6664C16.2888 27.6664 16.1112 27.6499 15.9336 27.6168C15.7554 27.5833 15.5776 27.511 15.4 27.4L8.06637 23.4C7.71117 23.2 7.43357 22.9278 7.23357 22.5833C7.03357 22.2387 6.93357 21.8555 6.93357 21.4336V14.7664L3.59997 12.9664C3.39997 12.8555 3.25544 12.7168 3.16637 12.5504C3.07784 12.3835 3.03357 12.2 3.03357 12C3.03357 11.8 3.07784 11.6166 3.16637 11.4496C3.25544 11.2832 3.39997 11.1446 3.59997 11.0336L15.4 4.60005C15.5776 4.48912 15.7554 4.41125 15.9336 4.36645C16.1112 4.32218 16.2888 4.30005 16.4664 4.30005C16.6664 4.30005 16.8554 4.32218 17.0336 4.36645C17.2112 4.41125 17.3778 4.48912 17.5336 4.60005L30.5664 11.6664C30.7664 11.7779 30.9165 11.9224 31.0168 12.1C31.1165 12.2776 31.1664 12.4664 31.1664 12.6664V21.5C31.1664 21.811 31.061 22.0721 30.8504 22.2832C30.6392 22.4944 30.3778 22.6 30.0664 22.6C29.733 22.6 29.461 22.4944 29.2504 22.2832C29.0392 22.0721 28.9336 21.811 28.9336 21.5V13.2664L26.0336 14.7664V21.4336C26.0336 21.8555 25.928 22.2387 25.7168 22.5833C25.5056 22.9278 25.2221 23.2 24.8664 23.4L17.5336 27.4C17.3778 27.511 17.2112 27.5833 17.0336 27.6168C16.8554 27.6499 16.6664 27.6664 16.4664 27.6664ZM16.4664 17.4664L26.5336 12L16.4664 6.60005L6.46637 12L16.4664 17.4664ZM16.4664 25.4664L23.8 21.4664V16.0336L17.5664 19.4336C17.3888 19.5222 17.2112 19.5888 17.0336 19.6336C16.8554 19.6779 16.6664 19.7 16.4664 19.7C16.2888 19.7 16.1112 19.6779 15.9336 19.6336C15.7554 19.5888 15.5888 19.5222 15.4336 19.4336L9.13357 16V21.4664L16.4664 25.4664Z" fill="#038BFF"/>
</svg>
