<svg width="33" height="32" viewBox="0 0 33 32" fill="none" xmlns="http://www.w3.org/2000/svg">
<path d="M16.5 29.1664C16.3224 29.1664 16.1558 29.1611 16 29.1504C15.8443 29.1392 15.6998 29.1003 15.5664 29.0336C12.6998 28.0555 10.3608 26.2222 8.54962 23.5336C6.73895 20.8446 5.83362 17.8888 5.83362 14.6664V8.20002C5.83362 7.73335 5.96695 7.31122 6.23362 6.93362C6.50028 6.55548 6.84455 6.28882 7.26642 6.13362L15.7336 2.96642C16.0003 2.87788 16.2558 2.83362 16.5 2.83362C16.7443 2.83362 16.9998 2.87788 17.2664 2.96642L25.7336 6.13362C26.1555 6.28882 26.4998 6.55548 26.7664 6.93362C27.0331 7.31122 27.1664 7.73335 27.1664 8.20002V14.6664C27.1664 17.8888 26.2608 20.8446 24.4496 23.5336C22.639 26.2222 20.3003 28.0555 17.4336 29.0336C17.3003 29.1003 17.1558 29.1392 17 29.1504C16.8443 29.1611 16.6776 29.1664 16.5 29.1664ZM16.5 27.0336C18.7891 26.2779 20.6891 24.8832 22.2 22.8496C23.711 20.8166 24.5998 18.5334 24.8664 16H16.5V5.06642L8.06642 8.20002V15.3336C8.06642 15.5112 8.08882 15.7334 8.13362 16H16.5V27.0336Z" fill="#038BFF"/>
</svg>
