<svg width="33" height="32" viewBox="0 0 33 32" fill="none" xmlns="http://www.w3.org/2000/svg">
<path d="M9.39998 30.6664C8.79998 30.6664 8.27785 30.4443 7.83358 30C7.38878 29.5558 7.16638 29.0336 7.16638 28.4336V3.56642C7.16638 2.96642 7.38878 2.44428 7.83358 2.00002C8.27785 1.55575 8.79998 1.33362 9.39998 1.33362H23.6C24.2 1.33362 24.7221 1.55575 25.1664 2.00002C25.6112 2.44428 25.8336 2.96642 25.8336 3.56642V28.4336C25.8336 29.0336 25.6112 29.5558 25.1664 30C24.7221 30.4443 24.2 30.6664 23.6 30.6664H9.39998ZM9.39998 25.1V28.4336H23.6V25.1H9.39998ZM16.5 27.9C16.8109 27.9 17.072 27.7888 17.2832 27.5664C17.4944 27.3446 17.6 27.0779 17.6 26.7664C17.6 26.4555 17.4944 26.1944 17.2832 25.9832C17.072 25.772 16.8109 25.6664 16.5 25.6664C16.189 25.6664 15.928 25.772 15.7168 25.9832C15.5056 26.1944 15.4 26.4555 15.4 26.7664C15.4 27.0998 15.5056 27.372 15.7168 27.5832C15.928 27.7944 16.189 27.9 16.5 27.9ZM9.39998 22.9H23.6V6.90002H9.39998V22.9ZM9.39998 4.66642H23.6V3.56642H9.39998V4.66642ZM9.39998 25.1V28.4336V25.1ZM9.39998 4.66642V3.56642V4.66642V4.66642Z" fill="#038BFF"/>
</svg>
