<svg width="33" height="32" viewBox="0 0 33 32" fill="none" xmlns="http://www.w3.org/2000/svg">
<path d="M23 16.3C22.8443 16.3 22.7053 16.2779 22.5832 16.2336C22.4611 16.1888 22.3333 16.0998 22.2 15.9664L16.5336 10.3C16.4003 10.1667 16.3112 10.039 16.2664 9.91684C16.2221 9.79471 16.2 9.65578 16.2 9.50004C16.2 9.36671 16.2221 9.23338 16.2664 9.10004C16.3112 8.96671 16.4003 8.84458 16.5336 8.73364L22.2 3.03364C22.3333 2.92218 22.4611 2.84431 22.5832 2.80004C22.7053 2.75578 22.8443 2.73364 23 2.73364C23.1333 2.73364 23.2667 2.75578 23.4 2.80004C23.5333 2.84431 23.6555 2.92218 23.7664 3.03364L29.4664 8.73364C29.5779 8.84458 29.6557 8.96671 29.7 9.10004C29.7443 9.23338 29.7664 9.36671 29.7664 9.50004C29.7664 9.65578 29.7443 9.79471 29.7 9.91684C29.6557 10.039 29.5779 10.1667 29.4664 10.3L23.7664 15.9664C23.6555 16.0998 23.5333 16.1888 23.4 16.2336C23.2667 16.2779 23.1333 16.3 23 16.3ZM5.6 14.2664C5.28907 14.2664 5.028 14.1611 4.8168 13.9504C4.6056 13.7392 4.5 13.4779 4.5 13.1664V5.13364C4.5 4.82218 4.6056 4.56111 4.8168 4.35044C5.028 4.13924 5.28907 4.03364 5.6 4.03364H13.6336C13.9445 4.03364 14.2056 4.13924 14.4168 4.35044C14.628 4.56111 14.7336 4.82218 14.7336 5.13364V13.1664C14.7336 13.4779 14.628 13.7392 14.4168 13.9504C14.2056 14.1611 13.9445 14.2664 13.6336 14.2664H5.6ZM19.3336 28C19.0221 28 18.7608 27.8944 18.5496 27.6832C18.3389 27.472 18.2336 27.211 18.2336 26.9V18.8664C18.2336 18.5555 18.3389 18.2944 18.5496 18.0832C18.7608 17.872 19.0221 17.7664 19.3336 17.7664H27.3664C27.6779 17.7664 27.9389 17.872 28.1496 18.0832C28.3608 18.2944 28.4664 18.5555 28.4664 18.8664V26.9C28.4664 27.211 28.3608 27.472 28.1496 27.6832C27.9389 27.8944 27.6779 28 27.3664 28H19.3336ZM5.6 28C5.28907 28 5.028 27.8944 4.8168 27.6832C4.6056 27.472 4.5 27.211 4.5 26.9V18.8664C4.5 18.5555 4.6056 18.2944 4.8168 18.0832C5.028 17.872 5.28907 17.7664 5.6 17.7664H13.6336C13.9445 17.7664 14.2056 17.872 14.4168 18.0832C14.628 18.2944 14.7336 18.5555 14.7336 18.8664V26.9C14.7336 27.211 14.628 27.472 14.4168 27.6832C14.2056 27.8944 13.9445 28 13.6336 28H5.6ZM6.7336 12.0336H12.5336V6.23364H6.7336V12.0336ZM23.0664 13.7L27.2 9.60004L23.0664 5.46644L18.9336 9.60004L23.0664 13.7ZM20.4664 25.7664H26.2664V19.9664H20.4664V25.7664ZM6.7336 25.7664H12.5336V19.9664H6.7336V25.7664Z" fill="#038BFF"/>
</svg>
