<svg width="33" height="32" viewBox="0 0 33 32" fill="none" xmlns="http://www.w3.org/2000/svg">
<path d="M27.2664 15.8336C26.9779 15.8336 26.7224 15.7336 26.5 15.5336C26.2776 15.3336 26.1443 15.0779 26.1 14.7664C25.8109 12.5664 24.8776 10.6776 23.3 9.1C21.7224 7.5224 19.8224 6.57787 17.6 6.2664C17.3109 6.22213 17.0611 6.0944 16.8504 5.8832C16.6392 5.672 16.5336 5.41093 16.5336 5.1C16.5336 4.78907 16.6445 4.5224 16.8664 4.3C17.0888 4.0776 17.3555 3.9888 17.6664 4.0336C20.4888 4.34453 22.8944 5.5 24.8832 7.5C26.872 9.5 28.0221 11.9 28.3336 14.7C28.3779 15.0109 28.2888 15.2776 28.0664 15.5C27.8445 15.7224 27.5779 15.8336 27.2664 15.8336ZM21.5664 15.8336C21.3221 15.8336 21.1 15.7557 20.9 15.6C20.7 15.4443 20.5667 15.2221 20.5 14.9336C20.2776 14.2003 19.8941 13.5613 19.3496 13.0168C18.8056 12.4723 18.1669 12.1 17.4336 11.9C17.1669 11.8109 16.9501 11.6776 16.7832 11.5C16.6168 11.3224 16.5336 11.1003 16.5336 10.8336C16.5336 10.4555 16.6613 10.1555 16.9168 9.9336C17.1723 9.7112 17.4667 9.63333 17.8 9.7C19.0224 9.98907 20.0723 10.5725 20.9496 11.4504C21.8275 12.3277 22.4109 13.3776 22.7 14.6C22.7891 14.9333 22.7168 15.2221 22.4832 15.4664C22.2501 15.7112 21.9445 15.8336 21.5664 15.8336ZM27.0336 28C24.2779 28 21.5501 27.3445 18.8504 26.0336C16.1501 24.7221 13.7389 23.0053 11.6168 20.8832C9.49467 18.7611 7.77787 16.3499 6.4664 13.6496C5.15547 10.9499 4.5 8.22213 4.5 5.4664C4.5 5.04453 4.63893 4.69467 4.9168 4.4168C5.19467 4.13893 5.54453 4 5.9664 4H10.8664C11.1779 4 11.4557 4.1056 11.7 4.3168C11.9443 4.528 12.0888 4.80027 12.1336 5.1336L13.0336 9.5C13.0779 9.81093 13.0723 10.0944 13.0168 10.3504C12.9613 10.6059 12.8445 10.8224 12.6664 11L9.3664 14.3336C10.4997 16.2445 11.8165 17.9445 13.3168 19.4336C14.8165 20.9221 16.4997 22.1888 18.3664 23.2336L21.5336 20.0336C21.7336 19.7888 21.9835 19.6165 22.2832 19.5168C22.5835 19.4165 22.8891 19.3997 23.2 19.4664L27.3664 20.3664C27.6997 20.4331 27.972 20.5941 28.1832 20.8496C28.3944 21.1056 28.5 21.4003 28.5 21.7336V26.5336C28.5 26.9555 28.3611 27.3053 28.0832 27.5832C27.8053 27.8611 27.4555 28 27.0336 28ZM8.2664 12.2664L10.8 9.7L10.1 6.2336H6.7336C6.77787 7.10027 6.92213 8.028 7.1664 9.0168C7.4112 10.0056 7.77787 11.0888 8.2664 12.2664ZM26.2664 25.7664V22.4L22.9336 21.7L20.4664 24.3C21.3555 24.7 22.3056 25.0277 23.3168 25.2832C24.328 25.5387 25.3112 25.6997 26.2664 25.7664Z" fill="#038BFF"/>
</svg>
