<svg width="33" height="32" viewBox="0 0 33 32" fill="none" xmlns="http://www.w3.org/2000/svg">
<path d="M12.5 28C12.189 28 11.928 27.8944 11.7168 27.6832C11.5056 27.472 11.4 27.2109 11.4 26.9V25.3336H5.39998C4.77758 25.3336 4.24985 25.1168 3.81678 24.6832C3.38318 24.2501 3.16638 23.7224 3.16638 23.1V6.2336C3.16638 5.6112 3.38318 5.0832 3.81678 4.6496C4.24985 4.21653 4.77758 4 5.39998 4H27.6C28.2224 4 28.7501 4.21653 29.1832 4.6496C29.6168 5.0832 29.8336 5.6112 29.8336 6.2336V23.1C29.8336 23.7224 29.6168 24.2501 29.1832 24.6832C28.7501 25.1168 28.2224 25.3336 27.6 25.3336H21.6V26.9C21.6 27.2109 21.4944 27.472 21.2832 27.6832C21.072 27.8944 20.8109 28 20.5 28H12.5ZM5.39998 23.1H27.6V6.2336H5.39998V23.1ZM5.39998 23.1V6.2336V23.1Z" fill="#038BFF"/>
</svg>
