<svg width="33" height="32" viewBox="0 0 33 32" fill="none" xmlns="http://www.w3.org/2000/svg">
<path d="M7.33365 19.0664C7.00032 18.7331 6.83365 18.3387 6.83365 17.8832C6.83365 17.4278 7.01125 17.0555 7.36645 16.7664C8.69979 15.6331 10.1275 14.7776 11.6497 14.2C13.1723 13.6224 14.7891 13.3336 16.5001 13.3336C18.211 13.3336 19.8275 13.628 21.3497 14.2168C22.8723 14.8056 24.3113 15.6667 25.6665 16.8C25.9998 17.0667 26.1721 17.4278 26.1833 17.8832C26.1945 18.3387 26.0222 18.7331 25.6665 19.0664C25.3555 19.3779 24.9779 19.5392 24.5337 19.5504C24.0889 19.5611 23.6777 19.4222 23.3001 19.1336C22.211 18.267 21.1054 17.639 19.9833 17.2496C18.8611 16.8608 17.7001 16.6664 16.5001 16.6664C15.3001 16.6664 14.139 16.8608 13.0169 17.2496C11.8947 17.639 10.7891 18.267 9.70005 19.1336C9.32245 19.4222 8.91125 19.5611 8.46645 19.5504C8.02219 19.5392 7.64459 19.3779 7.33365 19.0664ZM1.66645 13.4336C1.35552 13.1003 1.19445 12.7059 1.18325 12.2504C1.17205 11.7944 1.34432 11.411 1.70005 11.1C3.70005 9.34429 5.96112 7.94429 8.48325 6.90002C11.0054 5.85575 13.6777 5.33362 16.5001 5.33362C19.3225 5.33362 21.9947 5.85575 24.5169 6.90002C27.039 7.94429 29.3001 9.34429 31.3001 11.1C31.6558 11.411 31.8337 11.7888 31.8337 12.2336C31.8337 12.6779 31.667 13.0779 31.3337 13.4336C31.0003 13.7446 30.6057 13.9056 30.1497 13.9168C29.6942 13.928 29.2889 13.7779 28.9337 13.4664C27.1779 11.9779 25.2555 10.8059 23.1665 9.95042C21.0779 9.09442 18.8558 8.66642 16.5001 8.66642C14.1443 8.66642 11.9222 9.09442 9.83365 9.95042C7.74459 10.8059 5.82219 11.9779 4.06645 13.4664C3.71125 13.7779 3.30592 13.928 2.85045 13.9168C2.39445 13.9056 1.99979 13.7446 1.66645 13.4336ZM16.5001 27.4C15.7225 27.4 15.0446 27.1168 14.4665 26.5504C13.8889 25.9835 13.6001 25.3 13.6001 24.5C13.6001 23.7224 13.8889 23.0502 14.4665 22.4832C15.0446 21.9168 15.7225 21.6336 16.5001 21.6336C17.2777 21.6336 17.9555 21.9168 18.5337 22.4832C19.1113 23.0502 19.4001 23.7224 19.4001 24.5C19.4001 25.3 19.1113 25.9835 18.5337 26.5504C17.9555 27.1168 17.2777 27.4 16.5001 27.4Z" fill="#038BFF"/>
</svg>
