<svg width="25" height="24" viewBox="0 0 25 24" fill="none" xmlns="http://www.w3.org/2000/svg">
<path d="M3.5 7C3.21667 7 2.97933 6.90433 2.788 6.713C2.596 6.521 2.5 6.28333 2.5 6V3C2.5 2.71667 2.596 2.479 2.788 2.287C2.97933 2.09567 3.21667 2 3.5 2H6.5C6.78333 2 7.021 2.09567 7.213 2.287C7.40433 2.479 7.5 2.71667 7.5 3C7.5 3.28333 7.40433 3.52067 7.213 3.712C7.021 3.904 6.78333 4 6.5 4H4.5V6C4.5 6.28333 4.40433 6.521 4.213 6.713C4.021 6.90433 3.78333 7 3.5 7ZM3.5 22C3.21667 22 2.97933 21.904 2.788 21.712C2.596 21.5207 2.5 21.2833 2.5 21V18C2.5 17.7167 2.596 17.4793 2.788 17.288C2.97933 17.096 3.21667 17 3.5 17C3.78333 17 4.021 17.096 4.213 17.288C4.40433 17.4793 4.5 17.7167 4.5 18V20H6.5C6.78333 20 7.021 20.096 7.213 20.288C7.40433 20.4793 7.5 20.7167 7.5 21C7.5 21.2833 7.40433 21.5207 7.213 21.712C7.021 21.904 6.78333 22 6.5 22H3.5ZM18.5 22C18.2167 22 17.9793 21.904 17.788 21.712C17.596 21.5207 17.5 21.2833 17.5 21C17.5 20.7167 17.596 20.4793 17.788 20.288C17.9793 20.096 18.2167 20 18.5 20H20.5V18C20.5 17.7167 20.596 17.4793 20.788 17.288C20.9793 17.096 21.2167 17 21.5 17C21.7833 17 22.0207 17.096 22.212 17.288C22.404 17.4793 22.5 17.7167 22.5 18V21C22.5 21.2833 22.404 21.5207 22.212 21.712C22.0207 21.904 21.7833 22 21.5 22H18.5ZM21.5 7C21.2167 7 20.9793 6.90433 20.788 6.713C20.596 6.521 20.5 6.28333 20.5 6V4H18.5C18.2167 4 17.9793 3.904 17.788 3.712C17.596 3.52067 17.5 3.28333 17.5 3C17.5 2.71667 17.596 2.479 17.788 2.287C17.9793 2.09567 18.2167 2 18.5 2H21.5C21.7833 2 22.0207 2.09567 22.212 2.287C22.404 2.479 22.5 2.71667 22.5 3V6C22.5 6.28333 22.404 6.521 22.212 6.713C22.0207 6.90433 21.7833 7 21.5 7ZM18 17.5H19.5V19H18V17.5ZM18 14.5H19.5V16H18V14.5ZM16.5 16H18V17.5H16.5V16ZM15 17.5H16.5V19H15V17.5ZM13.5 16H15V17.5H13.5V16ZM16.5 13H18V14.5H16.5V13ZM15 14.5H16.5V16H15V14.5ZM13.5 13H15V14.5H13.5V13ZM19.5 5V11H13.5V5H19.5ZM11.5 13V19H5.5V13H11.5ZM11.5 5V11H5.5V5H11.5ZM10 17.5V14.5H7V17.5H10ZM10 9.5V6.5H7V9.5H10ZM18 9.5V6.5H15V9.5H18Z" fill="currentColor"/>
</svg>
