<svg width="21" height="20" viewBox="0 0 21 20" fill="none" xmlns="http://www.w3.org/2000/svg">
<path d="M1.5 5C1.21667 5 0.979333 4.90433 0.788 4.713C0.596 4.521 0.5 4.28333 0.5 4V1C0.5 0.716667 0.596 0.479 0.788 0.287C0.979333 0.0956666 1.21667 0 1.5 0H4.5C4.78333 0 5.021 0.0956666 5.213 0.287C5.40433 0.479 5.5 0.716667 5.5 1C5.5 1.28333 5.40433 1.52067 5.213 1.712C5.021 1.904 4.78333 2 4.5 2H2.5V4C2.5 4.28333 2.40433 4.521 2.213 4.713C2.021 4.90433 1.78333 5 1.5 5ZM1.5 20C1.21667 20 0.979333 19.904 0.788 19.712C0.596 19.5207 0.5 19.2833 0.5 19V16C0.5 15.7167 0.596 15.4793 0.788 15.288C0.979333 15.096 1.21667 15 1.5 15C1.78333 15 2.021 15.096 2.213 15.288C2.40433 15.4793 2.5 15.7167 2.5 16V18H4.5C4.78333 18 5.021 18.096 5.213 18.288C5.40433 18.4793 5.5 18.7167 5.5 19C5.5 19.2833 5.40433 19.5207 5.213 19.712C5.021 19.904 4.78333 20 4.5 20H1.5ZM16.5 20C16.2167 20 15.9793 19.904 15.788 19.712C15.596 19.5207 15.5 19.2833 15.5 19C15.5 18.7167 15.596 18.4793 15.788 18.288C15.9793 18.096 16.2167 18 16.5 18H18.5V16C18.5 15.7167 18.596 15.4793 18.788 15.288C18.9793 15.096 19.2167 15 19.5 15C19.7833 15 20.0207 15.096 20.212 15.288C20.404 15.4793 20.5 15.7167 20.5 16V19C20.5 19.2833 20.404 19.5207 20.212 19.712C20.0207 19.904 19.7833 20 19.5 20H16.5ZM19.5 5C19.2167 5 18.9793 4.90433 18.788 4.713C18.596 4.521 18.5 4.28333 18.5 4V2H16.5C16.2167 2 15.9793 1.904 15.788 1.712C15.596 1.52067 15.5 1.28333 15.5 1C15.5 0.716667 15.596 0.479 15.788 0.287C15.9793 0.0956666 16.2167 0 16.5 0H19.5C19.7833 0 20.0207 0.0956666 20.212 0.287C20.404 0.479 20.5 0.716667 20.5 1V4C20.5 4.28333 20.404 4.521 20.212 4.713C20.0207 4.90433 19.7833 5 19.5 5ZM16 15.5H17.5V17H16V15.5ZM16 12.5H17.5V14H16V12.5ZM14.5 14H16V15.5H14.5V14ZM13 15.5H14.5V17H13V15.5ZM11.5 14H13V15.5H11.5V14ZM14.5 11H16V12.5H14.5V11ZM13 12.5H14.5V14H13V12.5ZM11.5 11H13V12.5H11.5V11ZM17.5 3V9H11.5V3H17.5ZM9.5 11V17H3.5V11H9.5ZM9.5 3V9H3.5V3H9.5ZM8 15.5V12.5H5V15.5H8ZM8 7.5V4.5H5V7.5H8ZM16 7.5V4.5H13V7.5H16Z" fill="currentColor"/>
</svg>
