<svg width="25" height="24" viewBox="0 0 25 24" fill="none" xmlns="http://www.w3.org/2000/svg">
<path d="M16.5 13.5C16.9333 13.5 17.2917 13.3583 17.575 13.075C17.8583 12.7917 18 12.4333 18 12C18 11.5667 17.8583 11.2083 17.575 10.925C17.2917 10.6417 16.9333 10.5 16.5 10.5C16.0667 10.5 15.7083 10.6417 15.425 10.925C15.1417 11.2083 15 11.5667 15 12C15 12.4333 15.1417 12.7917 15.425 13.075C15.7083 13.3583 16.0667 13.5 16.5 13.5ZM5.5 19V5V19ZM5.5 21C4.95 21 4.479 20.8043 4.087 20.413C3.69567 20.021 3.5 19.55 3.5 19V5C3.5 4.45 3.69567 3.979 4.087 3.587C4.479 3.19567 4.95 3 5.5 3H19.5C20.05 3 20.521 3.19567 20.913 3.587C21.3043 3.979 21.5 4.45 21.5 5V7.5H19.5V5H5.5V19H19.5V16.5H21.5V19C21.5 19.55 21.3043 20.021 20.913 20.413C20.521 20.8043 20.05 21 19.5 21H5.5ZM13.5 17C12.95 17 12.4793 16.8043 12.088 16.413C11.696 16.021 11.5 15.55 11.5 15V9C11.5 8.45 11.696 7.979 12.088 7.587C12.4793 7.19567 12.95 7 13.5 7H20.5C21.05 7 21.521 7.19567 21.913 7.587C22.3043 7.979 22.5 8.45 22.5 9V15C22.5 15.55 22.3043 16.021 21.913 16.413C21.521 16.8043 21.05 17 20.5 17H13.5Z" fill="currentColor"/>
</svg>
