<svg width="32" height="32" viewBox="0 0 32 32" fill="none" xmlns="http://www.w3.org/2000/svg">
<circle cx="16" cy="16" r="16" fill="#37BDF2"/>
<g clip-path="url(#clip0_510_3403)">
<path d="M10.1667 11.8333H11C11.442 11.8333 11.866 11.6577 12.1785 11.3451C12.4911 11.0325 12.6667 10.6086 12.6667 10.1666C12.6667 9.94557 12.7545 9.73361 12.9107 9.57733C13.067 9.42105 13.279 9.33325 13.5 9.33325H18.5C18.721 9.33325 18.933 9.42105 19.0893 9.57733C19.2455 9.73361 19.3333 9.94557 19.3333 10.1666C19.3333 10.6086 19.5089 11.0325 19.8215 11.3451C20.134 11.6577 20.558 11.8333 21 11.8333H21.8333C22.2754 11.8333 22.6993 12.0088 23.0118 12.3214C23.3244 12.634 23.5 13.0579 23.5 13.4999V20.9999C23.5 21.4419 23.3244 21.8659 23.0118 22.1784C22.6993 22.491 22.2754 22.6666 21.8333 22.6666H10.1667C9.72464 22.6666 9.30072 22.491 8.98816 22.1784C8.67559 21.8659 8.5 21.4419 8.5 20.9999V13.4999C8.5 13.0579 8.67559 12.634 8.98816 12.3214C9.30072 12.0088 9.72464 11.8333 10.1667 11.8333" stroke="white" stroke-width="2" stroke-linecap="round" stroke-linejoin="round"/>
<path d="M16 19.3333C17.3807 19.3333 18.5 18.214 18.5 16.8333C18.5 15.4525 17.3807 14.3333 16 14.3333C14.6193 14.3333 13.5 15.4525 13.5 16.8333C13.5 18.214 14.6193 19.3333 16 19.3333Z" stroke="white" stroke-width="2" stroke-linecap="round" stroke-linejoin="round"/>
</g>
<defs>
<clipPath id="clip0_510_3403">
<rect width="20" height="20" fill="white" transform="translate(6 6)"/>
</clipPath>
</defs>
</svg>
