<svg width="24" height="24" viewBox="0 0 24 24" fill="none" xmlns="http://www.w3.org/2000/svg">
<path d="M6.99999 15.05C6.44999 15.05 5.97932 14.854 5.58799 14.462C5.19599 14.0707 4.99999 13.6 4.99999 13.05V11.05C4.99999 10.5 5.19599 10.029 5.58799 9.637C5.97932 9.24567 6.44999 9.05 6.99999 9.05H17C17.55 9.05 18.021 9.24567 18.413 9.637C18.8043 10.029 19 10.5 19 11.05V13.05C19 13.6 18.8043 14.0707 18.413 14.462C18.021 14.854 17.55 15.05 17 15.05H6.99999ZM12 5C11.7167 5 11.4793 4.904 11.288 4.712C11.096 4.52067 11 4.28333 11 4V3C11 2.71667 11.096 2.479 11.288 2.287C11.4793 2.09567 11.7167 2 12 2C12.2833 2 12.521 2.09567 12.713 2.287C12.9043 2.479 13 2.71667 13 3V4C13 4.28333 12.9043 4.52067 12.713 4.712C12.521 4.904 12.2833 5 12 5ZM18 7.1C17.8167 6.91667 17.725 6.68333 17.725 6.4C17.725 6.11667 17.8167 5.88333 18 5.7L18.4 5.3C18.5833 5.11667 18.8167 5.025 19.1 5.025C19.3833 5.025 19.6167 5.11667 19.8 5.3C19.9833 5.48333 20.075 5.71667 20.075 6C20.075 6.28333 19.9833 6.51667 19.8 6.7L19.4 7.1C19.2167 7.28333 18.9833 7.375 18.7 7.375C18.4167 7.375 18.1833 7.28333 18 7.1ZM12 22C11.7167 22 11.4793 21.904 11.288 21.712C11.096 21.5207 11 21.2833 11 21V20C11 19.7167 11.096 19.4793 11.288 19.288C11.4793 19.096 11.7167 19 12 19C12.2833 19 12.521 19.096 12.713 19.288C12.9043 19.4793 13 19.7167 13 20V21C13 21.2833 12.9043 21.5207 12.713 21.712C12.521 21.904 12.2833 22 12 22ZM18.4 18.8L18 18.4C17.8167 18.2167 17.725 17.9833 17.725 17.7C17.725 17.4167 17.8167 17.1833 18 17C18.1833 16.8167 18.4167 16.725 18.7 16.725C18.9833 16.725 19.2167 16.8167 19.4 17L19.8 17.4C19.9833 17.5833 20.075 17.8167 20.075 18.1C20.075 18.3833 19.9833 18.6167 19.8 18.8C19.6167 18.9833 19.3833 19.075 19.1 19.075C18.8167 19.075 18.5833 18.9833 18.4 18.8ZM4.59999 7.1L4.19999 6.7C4.01665 6.51667 3.92499 6.28333 3.92499 6C3.92499 5.71667 4.01665 5.48333 4.19999 5.3C4.38332 5.11667 4.61665 5.025 4.89999 5.025C5.18332 5.025 5.41665 5.11667 5.59999 5.3L5.99999 5.7C6.18332 5.88333 6.27499 6.11667 6.27499 6.4C6.27499 6.68333 6.18332 6.91667 5.99999 7.1C5.81665 7.28333 5.58332 7.375 5.29999 7.375C5.01665 7.375 4.78332 7.28333 4.59999 7.1ZM4.19999 18.8C4.01665 18.6167 3.92499 18.3833 3.92499 18.1C3.92499 17.8167 4.01665 17.5833 4.19999 17.4L4.59999 17C4.78332 16.8167 5.01665 16.725 5.29999 16.725C5.58332 16.725 5.81665 16.8167 5.99999 17C6.18332 17.1833 6.27499 17.4167 6.27499 17.7C6.27499 17.9833 6.18332 18.2167 5.99999 18.4L5.59999 18.8C5.41665 18.9833 5.18332 19.075 4.89999 19.075C4.61665 19.075 4.38332 18.9833 4.19999 18.8ZM6.99999 13.05H17V11.05H6.99999V13.05ZM6.99999 13.05V11.05V13.05Z" fill="black"/>
</svg>
