<svg width="30" height="28" viewBox="0 0 30 28" fill="none" xmlns="http://www.w3.org/2000/svg">
<g clip-path="url(#clip0_1_2)">
<path d="M27.5 3.5H8.75C7.8875 3.5 7.2125 3.90833 6.7625 4.52667L0 14L6.7625 23.4617C7.2125 24.08 7.8875 24.5 8.75 24.5H27.5C28.875 24.5 30 23.45 30 22.1667V5.83333C30 4.55 28.875 3.5 27.5 3.5ZM23.75 18.1883L21.9875 19.8333L17.5 15.645L13.0125 19.8333L11.25 18.1883L15.7375 14L11.25 9.81167L13.0125 8.16667L17.5 12.355L21.9875 8.16667L23.75 9.81167L19.2625 14L23.75 18.1883Z" fill="#C5CEE0"/>
</g>
<defs>
<clipPath id="clip0_1_2">
<rect width="30" height="28" fill="white"/>
</clipPath>
</defs>
</svg>
