<svg width="24" height="24" viewBox="0 0 24 24" fill="none" xmlns="http://www.w3.org/2000/svg">
<path d="M14.75 20.825L6.325 12.425C6.20833 12.3083 6.125 12.1833 6.075 12.05C6.025 11.9167 6 11.775 6 11.625C6 11.475 6.025 11.3333 6.075 11.2C6.125 11.0667 6.20833 10.9417 6.325 10.825L14.75 2.4C15.0167 2.13333 15.3417 2 15.725 2C16.1083 2 16.4333 2.14167 16.7 2.425C16.9833 2.69167 17.125 3.01233 17.125 3.387C17.125 3.76233 16.9833 4.09167 16.7 4.375L9.45 11.625L16.7 18.875C16.9667 19.1417 17.1 19.4623 17.1 19.837C17.1 20.2123 16.9667 20.5417 16.7 20.825C16.4167 21.0917 16.0877 21.225 15.713 21.225C15.3377 21.225 15.0167 21.0917 14.75 20.825Z" fill="white"/>
</svg>
