<svg width="40" height="40" viewBox="0 0 40 40" fill="none" xmlns="http://www.w3.org/2000/svg">
<path fill-rule="evenodd" clip-rule="evenodd" d="M3.33333 16.6667C3.33333 10.3813 3.33333 7.23858 5.28595 5.28595C7.23858 3.33333 10.3813 3.33333 16.6667 3.33333H23.3333C29.6187 3.33333 32.7615 3.33333 34.714 5.28595C36.6667 7.23858 36.6667 10.3813 36.6667 16.6667V23.3333C36.6667 29.6187 36.6667 32.7615 34.714 34.714C32.7615 36.6667 29.6187 36.6667 23.3333 36.6667H16.6667C10.3813 36.6667 7.23858 36.6667 5.28595 34.714C3.33333 32.7615 3.33333 29.6187 3.33333 23.3333V16.6667ZM12.8978 27.4108C14.9353 25.8475 17.4318 25 20 25C22.5682 25 25.0647 25.8475 27.1022 27.4108C29.1397 28.9743 30.6045 31.1663 31.2692 33.6472C31.5073 34.5362 30.9797 35.4502 30.0907 35.6883C29.2015 35.9267 28.2877 35.399 28.0493 34.5098C27.5747 32.7378 26.5283 31.1722 25.073 30.0553C23.6177 28.9387 21.8345 28.3333 20 28.3333C18.1655 28.3333 16.3824 28.9387 14.927 30.0553C13.4716 31.1722 12.4254 32.7378 11.9506 34.5098C11.7124 35.399 10.7985 35.9267 9.90938 35.6883C9.02027 35.4502 8.49263 34.5362 8.73087 33.6472C9.39557 31.1663 10.8603 28.9743 12.8978 27.4108ZM16.6667 15C16.6667 13.1591 18.159 11.6667 20 11.6667C21.841 11.6667 23.3333 13.1591 23.3333 15C23.3333 16.841 21.841 18.3333 20 18.3333C18.159 18.3333 16.6667 16.841 16.6667 15ZM20 8.33333C16.3181 8.33333 13.3333 11.3181 13.3333 15C13.3333 18.6818 16.3181 21.6667 20 21.6667C23.6818 21.6667 26.6667 18.6818 26.6667 15C26.6667 11.3181 23.6818 8.33333 20 8.33333Z" fill="#C5CEE0"/>
<path d="M30 4.16667H10C6.77834 4.16667 4.16667 6.77834 4.16667 10V30C4.16667 33.2217 6.77834 35.8333 10 35.8333H30C33.2217 35.8333 35.8333 33.2217 35.8333 30V10C35.8333 6.77834 33.2217 4.16667 30 4.16667Z" stroke="#C5CEE0"/>
</svg>
