<svg width="246" height="163" viewBox="0 0 246 163" fill="none" xmlns="http://www.w3.org/2000/svg">
<g clip-path="url(#clip0_444_1306)">
<path d="M87.9141 93.8079C96.3134 79.0217 112.335 67.6684 129.296 68.7621C116.785 82.3768 109.49 99.981 108.701 118.46C108.422 125.588 108.854 133.545 104.125 138.882C101.183 142.203 96.685 143.811 92.2628 144.149C87.8403 144.486 83.4189 143.686 79.0556 142.89L77.9971 143.215C77.5942 126.212 79.5148 108.594 87.9141 93.8079Z" fill="#F0F0F0"/>
<path d="M129.321 69.1182C116.779 75.1604 106.084 85.2515 99.5195 97.5584C98.1002 100.219 96.8918 103.042 96.3647 106.026C95.8373 109.012 96.2057 111.854 97.2247 114.69C98.1564 117.283 99.4094 119.827 99.695 122.601C99.9962 125.525 98.9211 128.259 96.9859 130.429C94.6181 133.084 91.4383 134.729 88.2728 136.23C84.7582 137.896 81.0812 139.571 78.5919 142.681C78.2903 143.057 77.7237 142.567 78.0248 142.191C82.3559 136.78 89.7696 135.763 94.9106 131.405C97.3094 129.371 99.1104 126.602 98.9968 123.357C98.8974 120.519 97.6075 117.894 96.6415 115.278C95.6272 112.53 95.1214 109.767 95.4852 106.837C95.8572 103.841 96.9579 100.965 98.3031 98.2793C101.337 92.2231 105.488 86.6631 110.244 81.8568C115.71 76.3321 122.08 71.7839 129.078 68.4088C129.512 68.2001 129.751 68.9108 129.321 69.1182Z" fill="white"/>
<path d="M101.443 93.4453C99.5198 92.0384 98.1595 89.9933 97.6044 87.6753C97.0493 85.3572 97.3357 82.9172 98.4123 80.791C98.6316 80.3615 99.3088 80.6824 99.0892 81.1125C98.083 83.0906 97.8165 85.3635 98.3378 87.5209C98.8591 89.6784 100.134 91.5784 101.932 92.8779C102.322 93.1607 101.831 93.7266 101.443 93.4453Z" fill="white"/>
<path d="M96.5793 113.438C101.397 112.733 105.773 110.238 108.834 106.448C109.137 106.072 109.703 106.563 109.401 106.938C106.208 110.875 101.649 113.463 96.6342 114.186C96.1561 114.254 96.1038 113.506 96.5793 113.438V113.438Z" fill="white"/>
<path d="M116.08 77.2545C116.711 77.954 117.505 78.4858 118.392 78.8022C119.278 79.1186 120.23 79.2096 121.16 79.0671C121.637 78.9925 121.689 79.7406 121.215 79.8147C120.186 79.9673 119.136 79.8655 118.155 79.5182C117.175 79.1708 116.294 78.5884 115.59 77.822C115.518 77.7553 115.474 77.6635 115.467 77.5653C115.459 77.4671 115.49 77.3699 115.552 77.2933C115.617 77.2185 115.709 77.1725 115.808 77.1652C115.907 77.1579 116.005 77.19 116.08 77.2545Z" fill="white"/>
<path d="M163.042 115.407C162.745 115.462 162.449 115.517 162.15 115.578C158.167 116.338 154.253 117.421 150.446 118.815C150.15 118.919 149.851 119.028 149.559 119.139C140.422 122.597 132.006 127.722 124.739 134.254C121.849 136.856 119.162 139.675 116.7 142.685C113.3 146.842 109.944 151.62 105.501 154.331C105.041 154.619 104.563 154.878 104.07 155.107L78.4756 144.482C78.4295 144.429 78.3807 144.381 78.3344 144.328L77.2931 143.95C77.4092 143.786 77.5332 143.619 77.6494 143.454C77.7164 143.359 77.789 143.266 77.856 143.17C77.9025 143.107 77.9492 143.045 77.9876 142.985C78.003 142.964 78.0186 142.943 78.0316 142.928C78.0699 142.869 78.1118 142.818 78.1477 142.764C78.8382 141.825 79.5365 140.889 80.2426 139.956C80.245 139.95 80.245 139.95 80.2531 139.946C85.6511 132.851 91.6885 126.145 98.551 120.569C98.7575 120.401 98.9662 120.228 99.1844 120.065C102.292 117.568 105.598 115.331 109.069 113.373C110.974 112.308 112.931 111.339 114.933 110.472C120.111 108.24 125.607 106.837 131.22 106.315C142.411 105.275 153.809 107.828 162.391 114.863C162.611 115.043 162.825 115.221 163.042 115.407Z" fill="#F0F0F0"/>
<path d="M162.849 115.708C149.2 112.976 134.59 114.59 121.944 120.461C119.21 121.73 116.547 123.255 114.331 125.321C112.113 127.387 110.698 129.878 109.805 132.757C108.989 135.388 108.459 138.174 107.018 140.561C105.5 143.077 102.996 144.613 100.146 145.179C96.6579 145.872 93.1293 145.27 89.699 144.561C85.8903 143.774 81.9468 142.896 78.0883 143.879C77.6207 143.998 77.4634 143.265 77.9302 143.146C84.6433 141.436 91.1746 145.09 97.9015 144.708C101.04 144.53 104.145 143.403 106.006 140.744C107.634 138.418 108.183 135.546 108.986 132.874C109.83 130.069 111.088 127.558 113.141 125.439C115.241 123.27 117.85 121.637 120.539 120.303C126.605 117.295 133.265 115.358 139.954 114.385C147.642 113.268 155.464 113.474 163.083 114.996C163.554 115.09 163.318 115.802 162.849 115.708V115.708Z" fill="white"/>
<path d="M125.954 118.335C125.266 116.053 125.41 113.601 126.361 111.416C127.313 109.23 129.009 107.455 131.148 106.406C131.582 106.195 131.929 106.859 131.495 107.07C129.502 108.043 127.921 109.698 127.04 111.734C126.158 113.771 126.033 116.056 126.687 118.177C126.828 118.638 126.095 118.794 125.954 118.335Z" fill="white"/>
<path d="M110.043 131.368C114.314 133.708 119.309 134.352 124.033 133.17C124.501 133.053 124.658 133.786 124.191 133.903C119.273 135.124 114.076 134.443 109.637 131.998C109.214 131.765 109.623 131.136 110.043 131.368Z" fill="white"/>
<path d="M147.382 114.227C147.465 115.165 147.779 116.069 148.297 116.856C148.815 117.642 149.519 118.288 150.348 118.735C150.774 118.963 150.365 119.592 149.942 119.365C149.029 118.867 148.251 118.153 147.677 117.285C147.104 116.417 146.751 115.421 146.65 114.385C146.632 114.288 146.652 114.188 146.706 114.106C146.759 114.023 146.842 113.964 146.937 113.94C147.034 113.919 147.135 113.938 147.219 113.992C147.302 114.046 147.361 114.13 147.382 114.227Z" fill="white"/>
<path d="M114.285 132.935C110.701 115.591 106.22 109.808 106.22 109.808L104.508 108.48L102.45 106.879L102.46 106.674L101.972 106.508L101.857 106.418L101.669 106.274L101.639 106.307L101.575 106.373L92.2601 103.204L80.4427 99.187L74.9705 92.069C74.0792 90.9097 72.9318 89.9727 71.6182 89.3315C70.3045 88.6903 68.8604 88.3622 67.3988 88.3731L49.9223 88.5025C47.5593 88.52 45.2882 89.4215 43.5557 91.0297L32.0687 101.693L14.1696 110.247L14.1394 110.217L13.9515 110.352L11.1859 111.675L11.3 112.269L9.58831 113.505C9.58831 113.505 5.10769 118.886 1.52318 135.025C0.611317 139.131 0.162466 147.94 0.000455285 158.795C-0.00768251 159.344 0.0933444 159.89 0.297659 160.399C0.501974 160.909 0.805502 161.373 1.19059 161.764C1.57569 162.155 2.03466 162.466 2.54083 162.678C3.04699 162.89 3.59025 163 4.13902 163H99.7413V163H111.674C112.222 163 112.765 162.89 113.271 162.679C113.777 162.467 114.235 162.156 114.62 161.765C115.005 161.375 115.309 160.911 115.514 160.402C115.718 159.893 115.82 159.348 115.812 158.799C115.654 146.988 115.205 137.388 114.285 132.935Z" fill="#3F3D56"/>
<path d="M126.551 15.1257C122.832 15.1257 119.265 16.6044 116.635 19.2364C114.005 21.8684 112.527 25.4382 112.527 29.1604C112.527 32.8827 114.005 36.4524 116.635 39.0845C119.265 41.7165 122.832 43.1951 126.551 43.1951H231.066C234.786 43.1951 238.353 41.7165 240.983 39.0845C243.613 36.4524 245.091 32.8827 245.091 29.1604C245.091 25.4382 243.613 21.8684 240.983 19.2364C238.353 16.6044 234.786 15.1257 231.066 15.1257H126.551Z" fill="#E5E5E5"/>
<path d="M126.551 17.9662C123.585 17.9662 120.739 19.1456 118.642 21.2449C116.544 23.3443 115.365 26.1916 115.365 29.1605C115.365 32.1295 116.544 34.9768 118.642 37.0761C120.739 39.1755 123.585 40.3549 126.551 40.3549H231.066C234.033 40.3549 236.878 39.1755 238.976 37.0761C241.074 34.9768 242.252 32.1295 242.252 29.1605C242.252 26.1916 241.074 23.3443 238.976 21.2449C236.878 19.1456 234.033 17.9662 231.066 17.9662H126.551Z" fill="white"/>
<path d="M61.4051 81.8026C74.0502 81.8026 84.3011 71.5442 84.3011 58.8898C84.3011 46.2354 74.0502 35.9769 61.4051 35.9769C48.76 35.9769 38.5092 46.2354 38.5092 58.8898C38.5092 71.5442 48.76 81.8026 61.4051 81.8026Z" fill="#9E616A"/>
<path d="M55.5479 80.6808C55.4501 80.4652 55.3525 80.249 55.2552 80.032C55.2927 80.0332 55.3298 80.0386 55.3673 80.0396L55.5479 80.6808Z" fill="#2F2E41"/>
<path d="M37.8724 37.0189C39.0304 36.0945 40.3838 35.2439 41.8644 35.2917C43.3449 35.3395 44.8463 36.6776 44.5396 38.1279C47.259 33.3093 51.5876 29.6033 56.7655 27.6602C61.9434 25.7172 67.6397 25.6615 72.8546 27.5027C76.5344 28.8019 80.143 31.4011 80.9883 35.2133C81.2053 36.192 81.2519 37.265 81.8624 38.0597C82.6323 39.0616 84.1052 39.2882 85.3181 38.9358C85.3302 38.9322 85.3423 38.9287 85.3544 38.9251C85.5593 38.855 85.7804 38.8482 85.9893 38.9053C86.1981 38.9624 86.385 39.081 86.5258 39.2456C86.6666 39.4102 86.7548 39.6133 86.779 39.8286C86.8032 40.0439 86.7623 40.2615 86.6615 40.4533L85.6204 42.3965C86.9328 42.6893 88.2966 42.6603 89.5955 42.3119C89.8112 42.2553 90.0392 42.2669 90.2481 42.345C90.4571 42.4232 90.6367 42.5641 90.7625 42.7485C90.8882 42.9329 90.9538 43.1517 90.9504 43.3749C90.947 43.5981 90.8746 43.8148 90.7432 43.9952C87.31 48.7123 81.5743 51.7583 75.7211 51.7225C71.561 51.6971 67.3581 50.2623 63.3094 51.2197C61.7431 51.59 60.2796 52.3066 59.0261 53.3169C57.7727 54.3271 56.7611 55.6054 56.0657 57.0579C55.3703 58.5104 55.0087 60.1002 55.0073 61.7108C55.006 63.3214 55.365 64.9119 56.058 66.3655C54.8142 65.0041 52.4099 65.3264 51.1376 66.6613C49.8653 67.9962 49.536 69.9885 49.6642 71.8287C49.8602 74.6433 50.9621 77.2954 52.1238 79.8767C42.3841 79.5698 33.172 72.7325 30.0712 63.4849C26.9574 54.1986 30.2207 43.1274 37.8724 37.0189Z" fill="#2F2E41"/>
<path opacity="0.2" d="M22.5355 127.699L28.9573 162.664L32.8105 163L22.5355 127.699Z" fill="#222B45"/>
<path opacity="0.2" d="M93.2729 125.062L86.8512 162.639L82.9979 163L93.2729 125.062Z" fill="#222B45"/>
<path d="M43.3497 25.2513C42.1184 25.7658 40.8336 25.202 40.2948 23.9106C39.7478 22.5996 40.2587 21.2686 41.5097 20.7459C42.7609 20.223 44.0228 20.7883 44.5787 22.1205C45.1262 23.4328 44.6208 24.7202 43.3497 25.2513ZM40.9911 18.1652L40.0121 18.5743C39.7675 18.6753 39.494 18.6808 39.2456 18.5896C38.9972 18.4984 38.792 18.3173 38.6707 18.082L38.6223 17.9872C37.5689 16.086 37.4483 13.7754 38.2657 11.1231C39.0229 8.74389 39.3375 7.0706 38.7049 5.55469C37.9736 3.80201 36.412 3.25298 34.4205 4.04831C33.6482 4.37106 33.4024 4.36592 32.7946 4.96933C32.6624 5.10218 32.5048 5.20703 32.3312 5.27762C32.1576 5.34821 31.9716 5.38309 31.7843 5.38019C31.6032 5.37806 31.4243 5.33945 31.2585 5.26666C31.0926 5.19388 30.9431 5.08841 30.8188 4.95655C30.5794 4.70244 30.4453 4.36687 30.4435 4.01763C30.4417 3.66839 30.5725 3.33149 30.8093 3.07497C31.831 2.00471 33.0632 1.15801 34.4283 0.588279C38.707 -1.19969 40.8609 1.43999 41.8466 3.80226C42.8107 6.11283 42.2684 8.25666 41.397 11.0331C40.6668 13.3402 40.7093 15.0497 41.5388 16.7495C41.5987 16.878 41.632 17.0173 41.6368 17.159C41.6415 17.3007 41.6176 17.4419 41.5664 17.5742C41.5153 17.7064 41.4379 17.8269 41.3391 17.9285C41.2402 18.03 41.1219 18.1106 40.9911 18.1652L40.9911 18.1652Z" fill="#038BFF"/>
<path d="M149.637 35.8541H128.843C128.777 35.8545 128.711 35.8419 128.65 35.8169C128.589 35.7919 128.533 35.755 128.487 35.7085C128.44 35.6619 128.402 35.6065 128.377 35.5454C128.352 35.4844 128.339 35.4189 128.339 35.3528C128.339 35.2867 128.352 35.2212 128.377 35.1602C128.402 35.0992 128.44 35.0438 128.487 34.9972C128.533 34.9506 128.589 34.9137 128.65 34.8887C128.711 34.8638 128.777 34.8511 128.843 34.8516H149.637C149.77 34.8525 149.896 34.9057 149.989 34.9996C150.083 35.0935 150.135 35.2205 150.135 35.3528C150.135 35.4852 150.083 35.6121 149.989 35.706C149.896 35.7999 149.77 35.8532 149.637 35.8541Z" fill="#038BFF"/>
<path d="M176.017 36.0212H155.222C155.156 36.0216 155.09 36.009 155.029 35.984C154.968 35.959 154.912 35.9222 154.866 35.8756C154.819 35.829 154.781 35.7736 154.756 35.7125C154.731 35.6515 154.718 35.586 154.718 35.5199C154.718 35.4538 154.731 35.3884 154.756 35.3273C154.781 35.2663 154.819 35.2109 154.866 35.1643C154.912 35.1177 154.968 35.0808 155.029 35.0559C155.09 35.0309 155.156 35.0182 155.222 35.0187H176.017C176.083 35.0182 176.148 35.0309 176.209 35.0559C176.27 35.0808 176.326 35.1177 176.373 35.1643C176.42 35.2109 176.457 35.2663 176.482 35.3273C176.508 35.3884 176.521 35.4538 176.521 35.5199C176.521 35.586 176.508 35.6515 176.482 35.7125C176.457 35.7736 176.42 35.829 176.373 35.8756C176.326 35.9222 176.27 35.959 176.209 35.984C176.148 36.009 176.083 36.0216 176.017 36.0212Z" fill="#038BFF"/>
<path d="M202.396 36.1883H181.601C181.469 36.1874 181.342 36.1342 181.249 36.0403C181.156 35.9464 181.104 35.8194 181.104 35.687C181.104 35.5547 181.156 35.4277 181.249 35.3338C181.342 35.2399 181.469 35.1867 181.601 35.1858H202.396C202.462 35.1854 202.527 35.198 202.588 35.223C202.65 35.248 202.705 35.2848 202.752 35.3314C202.799 35.378 202.836 35.4334 202.862 35.4944C202.887 35.5555 202.9 35.6209 202.9 35.687C202.9 35.7532 202.887 35.8186 202.862 35.8797C202.836 35.9407 202.799 35.9961 202.752 36.0427C202.705 36.0893 202.65 36.1261 202.588 36.1511C202.527 36.1761 202.462 36.1887 202.396 36.1883H202.396Z" fill="#038BFF"/>
<path d="M228.775 36.3553H207.98C207.848 36.3544 207.721 36.3012 207.628 36.2072C207.535 36.1133 207.483 35.9864 207.483 35.854C207.483 35.7217 207.535 35.5947 207.628 35.5008C207.721 35.4069 207.848 35.3537 207.98 35.3528H228.775C228.907 35.3537 229.034 35.4069 229.127 35.5008C229.22 35.5947 229.272 35.7217 229.272 35.854C229.272 35.9864 229.22 36.1133 229.127 36.2072C229.034 36.3012 228.907 36.3544 228.775 36.3553Z" fill="#038BFF"/>
<path d="M139.194 31.2411C141.329 31.2411 143.059 29.5095 143.059 27.3734C143.059 25.2374 141.329 23.5057 139.194 23.5057C137.06 23.5057 135.33 25.2374 135.33 27.3734C135.33 29.5095 137.06 31.2411 139.194 31.2411Z" fill="#038BFF"/>
<path d="M165.733 31.2411C167.867 31.2411 169.598 29.5095 169.598 27.3734C169.598 25.2374 167.867 23.5057 165.733 23.5057C163.598 23.5057 161.868 25.2374 161.868 27.3734C161.868 29.5095 163.598 31.2411 165.733 31.2411Z" fill="#038BFF"/>
<path d="M192.271 31.2411C194.406 31.2411 196.136 29.5095 196.136 27.3734C196.136 25.2374 194.406 23.5057 192.271 23.5057C190.137 23.5057 188.406 25.2374 188.406 27.3734C188.406 29.5095 190.137 31.2411 192.271 31.2411Z" fill="#038BFF"/>
<path d="M218.81 31.2411C220.944 31.2411 222.675 29.5095 222.675 27.3734C222.675 25.2374 220.944 23.5057 218.81 23.5057C216.675 23.5057 214.945 25.2374 214.945 27.3734C214.945 29.5095 216.675 31.2411 218.81 31.2411Z" fill="#038BFF"/>
</g>
<defs>
<clipPath id="clip0_444_1306">
<rect width="245.091" height="163" fill="white"/>
</clipPath>
</defs>
</svg>
