<svg width="48" height="48" viewBox="0 0 48 48" fill="none" xmlns="http://www.w3.org/2000/svg">
<circle cx="24" cy="24" r="24" fill="#E4E9F2"/>
<g clip-path="url(#clip0_550_3325)">
<path d="M16 19V18C16 17.4696 16.2107 16.9609 16.5858 16.5858C16.9609 16.2107 17.4696 16 18 16H20" stroke="#2E3A59" stroke-width="1.5" stroke-linecap="round" stroke-linejoin="round"/>
<path d="M16 29V30C16 30.5304 16.2107 31.0391 16.5858 31.4142C16.9609 31.7893 17.4696 32 18 32H20" stroke="#2E3A59" stroke-width="1.5" stroke-linecap="round" stroke-linejoin="round"/>
<path d="M28 16H30C30.5304 16 31.0391 16.2107 31.4142 16.5858C31.7893 16.9609 32 17.4696 32 18V19" stroke="#2E3A59" stroke-width="1.5" stroke-linecap="round" stroke-linejoin="round"/>
<path d="M28 32H30C30.5304 32 31.0391 31.7893 31.4142 31.4142C31.7893 31.0391 32 30.5304 32 30V29" stroke="#2E3A59" stroke-width="1.5" stroke-linecap="round" stroke-linejoin="round"/>
<path d="M17 24H31" stroke="#2E3A59" stroke-width="1.5" stroke-linecap="round" stroke-linejoin="round"/>
</g>
<defs>
<clipPath id="clip0_550_3325">
<rect width="24" height="24" fill="white" transform="translate(12 12)"/>
</clipPath>
</defs>
</svg>
